<mxfile host="app.diagrams.net" modified="2020-09-07T01:58:49.082Z" agent="5.0 (Windows NT 10.0; Win64; x64) AppleWebKit/537.36 (KHTML, like Gecko) Chrome/85.0.4183.83 Safari/537.36" etag="4oqST7BpsCL2V4kvSMM7" version="13.6.6" type="github">
  <diagram id="5uEOavn99dWPWmpEUDgn" name="Page-1">
    <mxGraphModel dx="981" dy="526" grid="1" gridSize="10" guides="1" tooltips="1" connect="1" arrows="1" fold="1" page="1" pageScale="1" pageWidth="850" pageHeight="1100" math="0" shadow="0">
      <root>
        <mxCell id="0" />
        <mxCell id="1" parent="0" />
        <mxCell id="kCiGQO7NNaxd1hjrAakl-16" value="" style="ellipse;shape=cloud;whiteSpace=wrap;html=1;strokeColor=#000000;strokeWidth=1;" vertex="1" parent="1">
          <mxGeometry x="10" y="10" width="590" height="340" as="geometry" />
        </mxCell>
        <mxCell id="kCiGQO7NNaxd1hjrAakl-1" value="Amazon EC2 w/ Apache HTTP" style="outlineConnect=0;fontColor=#232F3E;gradientColor=none;strokeColor=#ffffff;fillColor=#232F3E;dashed=0;verticalLabelPosition=middle;verticalAlign=bottom;align=center;html=1;whiteSpace=wrap;fontSize=10;fontStyle=1;spacing=3;shape=mxgraph.aws4.productIcon;prIcon=mxgraph.aws4.ec2;" vertex="1" parent="1">
          <mxGeometry x="120" y="141.5" width="80" height="110" as="geometry" />
        </mxCell>
        <mxCell id="kCiGQO7NNaxd1hjrAakl-6" value="AWS Lambda w/ Node.js" style="outlineConnect=0;fontColor=#232F3E;gradientColor=none;strokeColor=#ffffff;fillColor=#232F3E;dashed=0;verticalLabelPosition=middle;verticalAlign=bottom;align=center;html=1;whiteSpace=wrap;fontSize=10;fontStyle=1;spacing=3;shape=mxgraph.aws4.productIcon;prIcon=mxgraph.aws4.lambda;" vertex="1" parent="1">
          <mxGeometry x="280" y="141.5" width="80" height="110" as="geometry" />
        </mxCell>
        <mxCell id="kCiGQO7NNaxd1hjrAakl-7" value="" style="dashed=0;outlineConnect=0;html=1;align=center;labelPosition=center;verticalLabelPosition=bottom;verticalAlign=top;shape=mxgraph.weblogos.apache" vertex="1" parent="1">
          <mxGeometry x="177" y="190.5" width="20" height="30" as="geometry" />
        </mxCell>
        <mxCell id="kCiGQO7NNaxd1hjrAakl-8" value="" style="outlineConnect=0;dashed=0;verticalLabelPosition=bottom;verticalAlign=top;align=center;html=1;shape=mxgraph.aws3.android;fillColor=#8CC64F;gradientColor=none;" vertex="1" parent="1">
          <mxGeometry x="333" y="143.5" width="23.5" height="30" as="geometry" />
        </mxCell>
        <mxCell id="kCiGQO7NNaxd1hjrAakl-10" value="Amazon RDS w/&amp;nbsp;Aurora" style="outlineConnect=0;fontColor=#232F3E;gradientColor=none;strokeColor=#ffffff;fillColor=#232F3E;dashed=0;verticalLabelPosition=middle;verticalAlign=bottom;align=center;html=1;whiteSpace=wrap;fontSize=10;fontStyle=1;spacing=3;shape=mxgraph.aws4.productIcon;prIcon=mxgraph.aws4.aurora;strokeWidth=1;" vertex="1" parent="1">
          <mxGeometry x="440" y="140.5" width="80" height="110" as="geometry" />
        </mxCell>
        <mxCell id="kCiGQO7NNaxd1hjrAakl-13" value="" style="endArrow=classic;startArrow=classic;html=1;" edge="1" parent="1" source="kCiGQO7NNaxd1hjrAakl-1" target="kCiGQO7NNaxd1hjrAakl-6">
          <mxGeometry width="50" height="50" relative="1" as="geometry">
            <mxPoint x="430" y="361.5" as="sourcePoint" />
            <mxPoint x="480" y="311.5" as="targetPoint" />
          </mxGeometry>
        </mxCell>
        <mxCell id="kCiGQO7NNaxd1hjrAakl-14" value="" style="endArrow=classic;startArrow=classic;html=1;" edge="1" parent="1" source="kCiGQO7NNaxd1hjrAakl-6" target="kCiGQO7NNaxd1hjrAakl-10">
          <mxGeometry width="50" height="50" relative="1" as="geometry">
            <mxPoint x="430" y="361.5" as="sourcePoint" />
            <mxPoint x="480" y="311.5" as="targetPoint" />
          </mxGeometry>
        </mxCell>
        <mxCell id="kCiGQO7NNaxd1hjrAakl-20" value="Bootstrap Budget!" style="text;html=1;align=center;verticalAlign=middle;whiteSpace=wrap;rounded=0;fontStyle=1;fontSize=14;" vertex="1" parent="1">
          <mxGeometry x="245" y="100" width="150" height="30" as="geometry" />
        </mxCell>
      </root>
    </mxGraphModel>
  </diagram>
</mxfile>
